<?xml version="1.0" standalone="no"?>
<!DOCTYPE svg PUBLIC "-//W3C//DTD SVG 20010904//EN"
 "http://www.w3.org/TR/2001/REC-SVG-20010904/DTD/svg10.dtd">
<svg version="1.0" xmlns="http://www.w3.org/2000/svg"
 width="1200.000000pt" height="648.000000pt" viewBox="0 0 1200.000000 648.000000"
 preserveAspectRatio="xMidYMid meet">

<g transform="translate(0.000000,648.000000) scale(0.100000,-0.100000)"
fill="#000000" stroke="none">
<path d="M7660 6167 c0 -7 9 -53 20 -103 11 -49 20 -92 20 -96 0 -13 -58 -9
-221 13 -2137 285 -4362 -69 -5765 -916 -282 -171 -477 -319 -683 -520 -332
-324 -523 -646 -602 -1016 -30 -140 -33 -418 -6 -554 20 -99 64 -259 79 -288
5 -10 7 -21 5 -24 -7 -7 -141 173 -237 317 -45 69 -84 127 -87 130 -9 10 9
-116 34 -230 83 -383 295 -734 654 -1086 141 -138 200 -188 366 -313 877 -656
2206 -1105 3703 -1250 410 -40 546 -46 1070 -46 504 0 636 6 1015 40 1098 102
2131 374 2960 781 489 240 861 498 1180 818 354 355 556 707 637 1107 31 153
33 451 4 604 -83 447 -362 897 -785 1269 -291 255 -611 465 -1016 666 -609
303 -1299 524 -2070 663 -267 49 -275 50 -275 34z m-1485 -631 c42 -18 75 -69
75 -115 0 -29 -111 -623 -126 -673 -5 -17 13 -18 289 -18 299 0 441 -9 577
-36 337 -67 531 -231 598 -502 l18 -74 48 254 c27 139 54 268 62 285 7 18 28
42 46 53 32 19 48 20 765 20 592 0 754 -3 845 -15 380 -50 654 -216 802 -486
104 -189 137 -424 101 -702 -46 -350 -176 -623 -412 -867 -197 -205 -401 -326
-654 -389 -168 -42 -287 -52 -671 -58 -203 -3 -368 -8 -368 -12 0 -39 -144
-730 -155 -747 -38 -58 -40 -59 -410 -62 -187 -2 -359 0 -382 3 -24 3 -56 17
-73 31 -57 48 -56 62 16 433 36 185 67 344 70 354 5 16 3 17 -14 8 -14 -7
-141 -11 -382 -11 -400 0 -413 2 -450 62 -11 18 -20 47 -20 65 0 18 61 346
136 730 137 700 157 834 127 864 -29 29 -128 39 -393 39 l-266 0 -162 -837
c-113 -580 -168 -846 -181 -863 -41 -58 -53 -60 -439 -60 -391 0 -405 2 -442
62 -11 18 -20 49 -20 68 0 19 23 149 50 289 28 140 49 256 47 257 -1 2 -29
-33 -61 -77 -75 -100 -258 -278 -359 -347 -100 -69 -259 -144 -372 -176 -201
-57 -404 -76 -809 -76 l-282 0 -69 -361 c-41 -209 -77 -374 -87 -390 -39 -64
-37 -64 -428 -67 -271 -2 -365 0 -395 10 -50 17 -85 66 -85 120 0 51 585 3069
606 3126 11 28 28 51 48 63 30 18 60 19 763 19 592 0 754 -3 845 -15 344 -45
604 -186 759 -411 46 -67 98 -178 116 -248 10 -37 20 -66 23 -66 3 0 69 332
148 738 79 405 150 747 158 760 8 13 29 32 47 42 30 19 53 20 390 20 289 0
364 -3 392 -14z"/>
<path d="M5455 5408 c-2 -7 -135 -688 -295 -1513 -159 -825 -293 -1512 -296
-1528 l-6 -27 333 2 333 3 170 878 171 878 360 -3 c347 -3 362 -4 417 -26 107
-43 145 -116 134 -257 -3 -44 -66 -392 -141 -774 -74 -382 -135 -696 -135
-698 0 -2 152 -2 337 -1 l338 3 142 730 c78 402 147 774 153 828 34 304 -76
511 -323 607 -181 71 -275 82 -763 89 l-421 6 72 370 c40 204 75 387 79 408
l7 37 -331 0 c-256 0 -332 -3 -335 -12z"/>
<path d="M2312 3088 c-162 -832 -296 -1523 -299 -1535 l-5 -23 335 0 335 0 70
362 c39 200 74 382 78 404 l6 42 412 5 c441 6 546 15 722 62 53 14 132 40 175
59 281 122 555 405 673 696 129 316 151 663 60 910 -78 211 -263 381 -498 459
-196 65 -186 64 -1016 68 l-755 4 -293 -1513z m1568 1008 c199 -36 297 -111
336 -258 18 -69 18 -190 -1 -303 -52 -316 -175 -518 -375 -613 -158 -75 -279
-92 -647 -92 l-263 0 5 23 c3 12 57 290 120 617 63 327 117 605 120 618 l5 22
313 0 c218 -1 335 -5 387 -14z"/>
<path d="M3286 3963 c-3 -10 -46 -229 -96 -488 -49 -258 -92 -480 -95 -492
l-5 -23 173 0 c434 0 619 75 730 296 82 162 126 413 96 543 -14 61 -42 97 -98
126 -85 42 -189 55 -456 55 -223 0 -244 -1 -249 -17z"/>
<path d="M7830 4591 c0 -4 -133 -691 -295 -1525 -162 -835 -295 -1521 -295
-1527 0 -5 132 -9 333 -9 l333 0 38 192 c20 106 56 289 78 406 l42 212 315 0
c577 0 807 33 1034 145 377 188 641 551 724 998 23 128 24 377 0 472 -92 373
-366 585 -819 634 -118 13 -1488 15 -1488 2z m1350 -510 c136 -40 213 -102
252 -200 18 -47 22 -76 22 -181 1 -270 -91 -530 -238 -675 -73 -71 -151 -115
-266 -148 -127 -37 -238 -47 -529 -47 l-263 0 5 23 c3 12 58 294 122 627 64
333 118 611 121 618 3 11 69 13 351 10 325 -4 353 -6 423 -27z"/>
<path d="M8515 3968 c-2 -7 -45 -224 -95 -483 -49 -258 -93 -482 -96 -497 l-6
-28 174 0 c271 0 412 24 541 93 148 78 252 276 287 547 15 112 8 191 -23 252
-28 55 -100 93 -212 113 -107 19 -564 21 -570 3z"/>
</g>
</svg>
