<?xml version="1.0" standalone="no"?>
<!DOCTYPE svg PUBLIC "-//W3C//DTD SVG 20010904//EN"
 "http://www.w3.org/TR/2001/REC-SVG-20010904/DTD/svg10.dtd">
<svg version="1.0" xmlns="http://www.w3.org/2000/svg"
 width="140" height="60" viewBox="0 0 610.000000 280.000000"
 preserveAspectRatio="xMidYMid meet">

<g transform="translate(0.000000,280.000000) scale(0.100000,-0.100000)"
fill="#316192" stroke="none">
<path d="M1325 2420 c-33 -6 -81 -16 -107 -24 -33 -10 -60 -11 -86 -5 -94 22
-280 2 -338 -36 -18 -11 -30 -11 -90 6 -38 10 -117 24 -175 31 -166 18 -300
-14 -395 -96 -82 -70 -134 -213 -134 -371 0 -94 41 -304 94 -483 128 -434 275
-612 419 -510 26 18 29 19 52 4 60 -39 236 -61 298 -37 16 6 33 11 38 11 5 0
9 -42 9 -93 0 -121 17 -252 39 -302 25 -56 81 -101 148 -121 49 -14 69 -15
132 -5 146 22 241 87 275 189 14 41 34 161 53 320 l8 62 90 4 c130 6 187 26
251 90 111 112 89 219 -41 195 -22 -5 -68 -8 -102 -9 l-62 0 38 68 c132 233
223 525 224 717 1 129 -14 166 -99 244 -70 64 -158 112 -249 136 -76 20 -213
27 -290 15z m311 -83 c78 -28 129 -60 190 -119 71 -68 84 -102 84 -218 0 -185
-106 -506 -238 -723 -27 -45 -37 -69 -29 -72 26 -9 85 -10 165 -1 90 9 112 2
112 -39 0 -28 -67 -90 -124 -115 -55 -25 -158 -42 -220 -38 l-50 3 -23 -175
c-28 -209 -34 -232 -72 -291 -37 -60 -113 -99 -205 -106 -95 -8 -130 2 -180
50 -63 61 -77 113 -83 325 -3 94 -7 172 -8 172 -1 0 -24 -12 -51 -27 -42 -24
-60 -28 -129 -28 -118 1 -186 39 -172 97 7 27 25 36 117 62 34 9 66 27 83 44
l27 29 -47 12 c-27 6 -53 13 -59 14 -6 1 -54 -47 -108 -106 -99 -109 -124
-127 -175 -127 -99 0 -209 180 -295 480 -121 421 -113 674 26 807 100 97 329
118 543 52 l70 -21 40 20 c69 36 128 45 255 39 72 -4 133 -2 157 5 98 27 316
24 399 -5z"/>
<path d="M1365 2302 c-78 -4 -84 -10 -35 -35 25 -12 83 -60 130 -107 68 -68
95 -103 130 -174 38 -75 45 -96 43 -140 -2 -28 -3 -145 -3 -260 -1 -146 -5
-219 -14 -245 -7 -20 -17 -45 -20 -56 -12 -34 43 55 83 135 117 229 188 504
166 645 -5 40 -15 57 -59 100 -102 102 -240 147 -421 137z"/>
<path d="M354 2269 c-22 -5 -65 -24 -95 -42 -133 -79 -170 -257 -113 -536 70
-340 187 -625 272 -660 42 -17 62 -4 153 98 102 114 98 106 67 138 -38 40 -68
113 -69 169 -1 27 1 141 4 254 7 267 34 380 121 493 21 27 36 50 34 52 -2 1
-37 10 -78 20 -91 20 -240 28 -296 14z"/>
<path d="M901 2264 c-136 -48 -227 -183 -256 -378 -7 -46 -6 -49 11 -42 76 31
110 38 171 34 60 -4 68 -7 99 -40 42 -46 54 -89 61 -219 6 -121 -2 -169 -53
-292 -38 -93 -41 -107 -18 -107 23 0 68 -29 85 -54 11 -16 15 -80 19 -272 6
-249 6 -251 34 -307 36 -75 66 -91 157 -85 74 6 139 36 172 79 27 38 43 114
67 337 28 251 25 240 65 278 l34 32 -19 25 c-33 42 -168 309 -184 366 -49 168
11 271 157 271 35 0 57 4 57 11 0 34 -73 143 -145 215 -86 87 -164 132 -263
153 -75 16 -199 13 -251 -5z"/>
<path d="M1444 1820 c-50 -20 -66 -80 -43 -165 18 -72 142 -316 153 -305 7 7
11 94 11 245 l0 235 -50 -1 c-27 0 -60 -4 -71 -9z m75 -24 c9 -11 6 -18 -14
-34 -28 -22 -63 -19 -72 6 -13 32 62 57 86 28z"/>
<path d="M707 1796 c-33 -14 -60 -26 -62 -28 -2 -2 -5 -89 -7 -194 l-3 -190
30 -50 c44 -70 157 -128 172 -87 3 10 23 63 45 118 28 70 42 121 45 171 6 70
-8 185 -28 235 -21 54 -98 63 -192 25z m172 -22 c13 -12 12 -16 -4 -34 -22
-24 -43 -25 -73 -4 -26 18 -29 51 -4 57 24 6 65 -3 81 -19z"/>
<path d="M854 1107 c-43 -46 -59 -56 -118 -72 -54 -15 -64 -20 -50 -28 10 -6
47 -10 84 -11 55 0 74 5 113 27 48 28 78 70 69 97 -4 15 -31 40 -42 40 -3 0
-28 -24 -56 -53z"/>
<path d="M1552 1148 c-17 -22 -23 -56 -12 -63 21 -13 138 -7 192 9 29 9 64 25
78 37 24 20 24 20 2 14 -37 -11 -168 -8 -190 4 -27 15 -57 14 -70 -1z"/>
<path d="M4608 1777 c-79 -23 -108 -62 -108 -147 0 -101 39 -133 200 -165 180
-35 210 -54 210 -135 0 -86 -51 -123 -171 -123 -55 0 -88 6 -115 19 -46 22
-84 75 -84 115 0 26 -4 29 -31 29 l-32 0 7 -47 c15 -113 125 -174 290 -160
139 12 200 70 194 184 -6 101 -41 123 -263 169 -115 23 -150 51 -150 117 0 75
58 117 160 117 96 0 157 -35 177 -102 9 -32 16 -38 38 -38 26 0 27 1 20 40
-17 91 -77 131 -210 136 -51 3 -104 -1 -132 -9z"/>
<path d="M5182 1771 c-73 -25 -122 -67 -157 -136 -27 -53 -30 -68 -30 -154 0
-112 22 -175 83 -234 63 -61 122 -82 232 -81 65 0 107 5 132 16 l37 17 48 -40
c44 -36 49 -38 61 -22 18 25 16 28 -28 63 l-40 32 26 31 c75 89 91 265 34 377
-28 54 -104 117 -163 135 -68 20 -170 18 -235 -4z m245 -49 c168 -86 180 -382
19 -481 -18 -12 -59 -26 -90 -32 -114 -21 -218 24 -272 117 -36 61 -45 185
-20 261 23 69 87 129 165 154 44 14 152 4 198 -19z"/>
<path d="M5667 1773 c-4 -3 -7 -138 -7 -300 l0 -293 218 0 c211 0 218 1 218
20 0 19 -7 20 -188 20 l-188 0 0 280 0 280 -23 0 c-13 0 -27 -3 -30 -7z"/>
<path d="M2132 1453 l3 -248 28 -3 27 -3 0 110 0 111 116 0 c161 0 205 23 220
118 8 52 -10 105 -47 137 -30 24 -34 25 -190 25 l-159 0 2 -247z m306 196 c50
-31 53 -131 5 -169 -22 -17 -40 -20 -139 -20 l-114 0 0 106 0 107 113 -5 c73
-3 120 -9 135 -19z"/>
<path d="M3340 1585 c0 -54 0 -55 -30 -55 -20 0 -30 -5 -30 -15 0 -10 10 -15
30 -15 l30 0 0 -133 c0 -155 7 -171 76 -165 40 3 61 28 24 28 -12 0 -30 5 -41
10 -17 10 -19 22 -19 135 l0 125 40 0 c29 0 40 4 40 15 0 11 -11 15 -40 15
l-40 0 0 55 c0 48 -2 55 -20 55 -18 0 -20 -7 -20 -55z"/>
<path d="M2634 1526 c-90 -40 -119 -174 -59 -267 63 -98 251 -87 300 17 23 48
22 146 -2 186 -31 53 -66 72 -141 75 -42 2 -79 -2 -98 -11z m164 -37 c33 -21
52 -64 52 -119 0 -97 -41 -140 -132 -140 -49 0 -62 4 -90 29 -29 26 -33 35
-36 98 -4 64 -2 72 24 102 15 18 37 37 48 42 27 11 108 4 134 -12z"/>
<path d="M2995 1526 c-54 -23 -70 -88 -32 -130 18 -21 40 -28 117 -41 52 -9
98 -19 103 -22 17 -10 24 -48 14 -71 -12 -26 -44 -37 -109 -36 -58 1 -97 20
-104 51 -4 16 -13 23 -31 23 -21 0 -23 -4 -18 -22 18 -64 106 -98 211 -82 91
13 133 90 82 149 -19 21 -40 28 -112 41 -120 21 -132 28 -127 74 6 50 123 70
175 29 14 -11 26 -27 26 -35 0 -8 7 -17 15 -20 46 -18 35 50 -15 84 -26 17
-47 22 -99 22 -36 -1 -80 -7 -96 -14z"/>
<path d="M3541 1522 c-59 -29 -76 -63 -76 -147 0 -84 17 -117 76 -148 48 -25
147 -19 188 11 17 12 33 22 37 22 9 0 -3 -82 -17 -113 -30 -66 -181 -71 -217
-6 -19 33 -52 39 -52 10 0 -82 179 -120 272 -58 49 33 57 69 57 265 1 166 0
172 -19 172 -15 0 -20 -7 -20 -27 l0 -26 -22 20 c-13 11 -33 26 -45 32 -33 17
-123 13 -162 -7z m154 -26 c18 -8 41 -26 50 -40 20 -29 23 -106 6 -148 -31
-81 -177 -88 -227 -12 -24 36 -24 122 0 158 33 51 106 69 171 42z"/>
<path d="M3970 1533 c-8 -3 -25 -17 -38 -31 l-23 -27 7 28 c6 24 3 27 -20 27
l-26 0 2 -162 c3 -155 4 -163 23 -163 19 0 20 8 25 123 5 120 6 124 33 148 19
17 40 24 68 24 32 0 39 3 39 20 0 17 -6 20 -37 19 -21 0 -45 -3 -53 -6z"/>
<path d="M4154 1526 c-84 -37 -119 -168 -68 -255 37 -62 129 -94 211 -72 63
17 137 112 86 111 -10 -1 -27 -15 -38 -33 -27 -43 -87 -63 -143 -47 -49 13
-92 60 -92 101 l0 29 150 0 150 0 0 27 c0 50 -38 110 -84 132 -49 24 -125 27
-172 7z m154 -36 c27 -17 62 -70 62 -95 0 -3 -58 -5 -130 -5 -143 0 -145 1
-114 61 29 57 121 76 182 39z"/>
</g>
</svg>
