<?xml version="1.0" standalone="no"?>
<!DOCTYPE svg PUBLIC "-//W3C//DTD SVG 20010904//EN"
 "http://www.w3.org/TR/2001/REC-SVG-20010904/DTD/svg10.dtd">
<svg version="1.0" xmlns="http://www.w3.org/2000/svg"
 width="150" height="65" viewBox="0 0 360.000000 360.000000"
 preserveAspectRatio="xMidYMid meet">

<g transform="translate(0.000000,360.000000) scale(0.100000,-0.100000)"
fill="#6482BA" stroke="none">
<path d="M2015 2721 c17 -4 42 -6 57 -5 24 1 26 -1 17 -23 -5 -13 -9 -25 -9
-27 0 -1 10 -2 23 -2 12 -1 40 -4 62 -8 22 -4 109 -18 194 -32 85 -14 158 -27
161 -29 4 -2 17 -6 31 -8 188 -35 506 -174 663 -291 214 -158 311 -317 310
-506 -2 -177 -104 -340 -309 -495 -82 -62 -336 -186 -470 -230 -196 -65 -444
-115 -651 -132 -182 -15 -600 -8 -714 11 -14 3 -43 7 -65 10 -109 16 -222 40
-340 72 -481 132 -806 370 -888 650 -19 63 -19 179 -1 246 7 28 10 56 7 62 -3
6 -3 8 2 4 10 -10 35 37 35 66 0 17 2 18 10 6 7 -11 9 -7 6 16 -2 17 -6 35 -9
41 -3 5 -2 15 4 23 6 11 9 11 10 3 1 -7 2 -17 3 -23 2 -18 19 -16 22 3 1 9 -1
15 -6 12 -10 -6 -20 20 -12 32 4 5 -8 -7 -25 -27 -77 -83 -126 -219 -127 -345
0 -158 64 -294 204 -435 453 -454 1504 -635 2387 -410 584 149 967 456 1000
802 42 455 -530 851 -1390 963 -121 15 -252 20 -192 6z m101 -26 c-1 -8 -5
-17 -8 -21 -5 -4 -4 16 1 34 3 9 9 -1 7 -13z m-1990 -626 c-8 -12 -12 -29 -9
-38 7 -17 5 -16 -17 13 -11 14 -11 18 -2 12 9 -5 12 -3 11 5 -2 8 1 25 5 38 7
21 10 22 18 8 6 -12 4 -24 -6 -38z m-30 -55 c1 -9 0 -13 -4 -10 -3 4 -7 14 -8
22 -1 9 0 13 4 10 3 -4 7 -14 8 -22z"/>
<path d="M116 2083 c-6 -14 -5 -15 5 -6 7 7 10 15 7 18 -3 3 -9 -2 -12 -12z"/>
<path d="M1966 2701 c-3 -5 2 -15 12 -22 15 -12 16 -12 5 2 -7 9 -10 19 -6 22
3 4 4 7 0 7 -3 0 -8 -4 -11 -9z"/>
<path d="M1994 2700 c2 -16 20 -14 24 2 3 10 2 10 -6 -1 -7 -9 -11 -10 -15 -2
-4 7 -5 8 -3 1z"/>
<path d="M2028 2693 c-5 -17 -2 -21 13 -18 11 2 19 -2 19 -8 0 -7 5 -4 11 6 6
10 8 23 5 30 -2 7 -5 3 -6 -8 l-1 -20 -9 20 -9 20 -1 -20 c-1 -20 -2 -20 -9
-1 -7 19 -8 19 -13 -1z"/>
<path d="M1590 2463 c0 -4 -40 -216 -90 -470 -49 -254 -90 -464 -90 -467 0 -3
46 -6 103 -6 l102 0 49 258 c27 141 51 263 54 270 6 16 214 17 245 1 48 -26
48 -37 -7 -312 l-43 -218 106 3 106 3 48 245 c31 161 45 259 42 285 -8 57 -37
101 -84 124 -45 23 -174 41 -299 41 -80 0 -82 1 -78 23 3 12 12 60 21 107 9
47 19 93 21 103 5 15 -4 17 -100 17 -58 0 -106 -3 -106 -7z"/>
<path d="M735 2211 c-3 -6 -16 -65 -30 -133 -49 -249 -155 -795 -155 -801 0
-4 46 -7 103 -7 l103 0 24 125 24 125 131 0 c155 0 221 11 293 47 60 30 140
110 171 171 30 59 51 147 51 212 -2 148 -90 239 -253 260 -94 12 -454 13 -462
1z m429 -165 c54 -23 69 -55 64 -134 -3 -37 -14 -87 -25 -112 -44 -98 -112
-130 -273 -130 l-97 0 37 189 c20 103 40 193 43 198 10 15 210 6 251 -11z"/>
<path d="M2345 2209 c-4 -12 -95 -481 -156 -799 -11 -58 -22 -113 -25 -122 -5
-16 4 -18 100 -18 l105 0 10 53 c6 28 17 84 24 122 l12 70 165 6 c136 5 175 9
220 27 154 61 260 219 260 391 0 97 -15 137 -70 192 -73 73 -108 81 -397 86
-199 4 -244 3 -248 -8z m444 -167 c60 -29 73 -116 35 -225 -38 -108 -92 -139
-256 -145 -65 -2 -118 -1 -118 4 0 15 71 378 76 385 2 4 54 5 116 3 80 -3 122
-9 147 -22z"/>
</g>
</svg>
